# xmcd CD database file
#
# Track frame offsets:
#	150
#	14082
#	26600
#	37470
#	51475
#	71183
#	86792
#	106770
#	121492
#	147963
#	160093
#	175066
#	192309
#
# Disc length: 2755 seconds
#
# Revision: 0
# Processed by: cddbd v1.5.2PL0 Copyright (c) Steve Scherf et al.
# Submitted via: CDex 1.51
#
DISCID=c10ac10d
DTITLE=Teddy Thompson - Up Front and Down Low
DYEAR=2007
DGENRE=Country
TTITLE0=Change Of Heart
TTITLE1=Touching Home
TTITLE2=Walking The Floor Over You
TTITLE3=(My Friends Are Gonna Be) Strangers
TTITLE4=I'm Left, You're Right, She's Gone
TTITLE5=My Heart Echoes
TTITLE6=The Worst Is Yet To Come
TTITLE7=My Blue Tears
TTITLE8=Down Low
TTITLE9=You Finally Said Something Good (When You Said Goodbye)
TTITLE10=She Thinks I Still Care
TTITLE11=Let's Think About Living
TTITLE12=Don't Ask Me To Be Friends
EXTD=YEAR: 2007
EXTT0=
EXTT1=
EXTT2=
EXTT3=
EXTT4=
EXTT5=
EXTT6=
EXTT7=
EXTT8=
EXTT9=
EXTT10=
EXTT11=
EXTT12=
PLAYORDER=
